<svg width="25" height="19" viewBox="0 0 25 19" fill="none" xmlns="http://www.w3.org/2000/svg">
<path d="M24.648 2.32592C24.573 2.23351 24.4785 2.15886 24.3713 2.10732C24.264 2.05579 24.1467 2.02865 24.0277 2.02786H7.25605L7.77967 3.63897H22.9724L20.8216 13.3056H8.73828L5.05689 1.64925C5.01707 1.52557 4.94792 1.41335 4.85534 1.32217C4.76276 1.23099 4.6495 1.16357 4.52522 1.12564L1.22244 0.11064C1.12089 0.0794327 1.01418 0.068534 0.908413 0.078566C0.802645 0.0885979 0.699889 0.119364 0.606011 0.169108C0.416417 0.26957 0.274497 0.441234 0.211471 0.646334C0.148445 0.851435 0.169477 1.07317 0.269939 1.26277C0.370401 1.45236 0.542065 1.59428 0.747166 1.65731L3.63911 2.54342L7.33661 14.224L6.0155 15.3034L5.91078 15.4081C5.58399 15.7847 5.39877 16.2635 5.387 16.762C5.37524 17.2604 5.53768 17.7474 5.84633 18.139C6.06589 18.406 6.3449 18.6179 6.66102 18.7578C6.97715 18.8977 7.32162 18.9616 7.66689 18.9445H21.1116C21.3253 18.9445 21.5302 18.8597 21.6812 18.7086C21.8323 18.5575 21.9172 18.3526 21.9172 18.139C21.9172 17.9253 21.8323 17.7204 21.6812 17.5694C21.5302 17.4183 21.3253 17.3334 21.1116 17.3334H7.538C7.44524 17.3302 7.35486 17.3032 7.2756 17.2549C7.19633 17.2066 7.13086 17.1387 7.08551 17.0577C7.04016 16.9767 7.01646 16.8854 7.0167 16.7926C7.01694 16.6998 7.04112 16.6086 7.08689 16.5279L9.02828 14.9167H21.4661C21.6523 14.9213 21.8343 14.8612 21.9812 14.7466C22.1281 14.6321 22.2307 14.4701 22.2716 14.2884L24.8252 3.01064C24.8497 2.89055 24.8465 2.76645 24.8158 2.64779C24.7851 2.52913 24.7277 2.41905 24.648 2.32592Z" fill="#272727"/>
</svg>
